# xmcd CD database file
#
# Track frame offsets:
#	150
#	14710
#	30193
#	44767
#	60368
#	76912
#	92763
#	108621
#
# Disc length: 1706 seconds
#
# Revision: 1
# Processed by: cddbd v1.4b42PL1 Copyright (c) Steve Scherf et al.
# Submitted via: CDex 1.40Beta6
#
DISCID=5d06a808
DTITLE=Steve McCormick - Steve McCormick
DYEAR=1996
DGENRE=Country
TTITLE0=Lovin' That Country
TTITLE1=Now That I Found You
TTITLE2=The Dog House
TTITLE3=Living In Yesterday
TTITLE4=Remember
TTITLE5=Always An Usher (Never A Groom)
TTITLE6=Tomorrow's Another Day
TTITLE7=The Jeans
EXTD=
EXTT0=
EXTT1=
EXTT2=
EXTT3=
EXTT4=
EXTT5=
EXTT6=
EXTT7=
PLAYORDER=
